<svg width="5500" height="4593" viewBox="0 0 5500 4593" fill="none" xmlns="http://www.w3.org/2000/svg">
<circle cx="2653.5" cy="2115.5" r="2115.5" fill="black"/>
<mask id="path-2-inside-1_0_1" fill="white">
<path d="M0 3484C0 3456.39 22.3858 3434 50 3434H5450C5477.61 3434 5500 3456.39 5500 3484V3984C5500 4011.61 5477.61 4034 5450 4034H50C22.3857 4034 0 4011.61 0 3984V3484Z"/>
</mask>
<path d="M0 3484C0 3456.39 22.3858 3434 50 3434H5450C5477.61 3434 5500 3456.39 5500 3484V3984C5500 4011.61 5477.61 4034 5450 4034H50C22.3857 4034 0 4011.61 0 3984V3484Z" fill="#97C6AC"/>
<path d="M-40 3484C-40 3445.34 -8.65993 3414 30 3414H5490C5528.66 3414 5560 3445.34 5560 3484H5440C5440 3467.43 5440 3454 5440 3454H50C44.4772 3454 40 3467.43 40 3484H-40ZM5560 3984C5560 4039.23 5515.23 4084 5460 4084H50C0.294373 4084 -40 4043.71 -40 3994L40 3984C40 3984 44.4772 3984 50 3984H5440H5560ZM50 4084C0.294373 4084 -40 4043.71 -40 3994V3484C-40 3445.34 -8.65993 3414 30 3414L50 3454C44.4772 3454 40 3467.43 40 3484V3984C40 3984 44.4772 3984 50 3984V4084ZM5490 3414C5528.66 3414 5560 3445.34 5560 3484V3984C5560 4039.23 5515.23 4084 5460 4084L5440 3984V3484C5440 3467.43 5440 3454 5440 3454L5490 3414Z" fill="black" mask="url(#path-2-inside-1_0_1)"/>
<mask id="path-4-inside-2_0_1" fill="white">
<path d="M904 4043C904 4015.39 926.386 3993 954 3993H4354C4381.61 3993 4404 4015.39 4404 4043V4543C4404 4570.61 4381.61 4593 4354 4593H954C926.386 4593 904 4570.61 904 4543V4043Z"/>
</mask>
<path d="M904 4043C904 4015.39 926.386 3993 954 3993H4354C4381.61 3993 4404 4015.39 4404 4043V4543C4404 4570.61 4381.61 4593 4354 4593H954C926.386 4593 904 4570.61 904 4543V4043Z" fill="#97C6AC"/>
<path d="M904 3993H4404H904ZM4464 4543C4464 4598.23 4419.23 4643 4364 4643H954C904.294 4643 864 4602.71 864 4553L944 4543C944 4543 948.477 4543 954 4543H4344H4464ZM954 4643C904.294 4643 864 4602.71 864 4553V4083C864 4033.29 904.294 3993 954 3993C948.477 3993 944 4015.39 944 4043V4543C944 4543 948.477 4543 954 4543V4643ZM4354 3993C4414.75 3993 4464 4042.25 4464 4103V4543C4464 4598.23 4419.23 4643 4364 4643L4344 4543V4043C4344 4015.39 4344 3993 4344 3993H4354Z" fill="black" mask="url(#path-4-inside-2_0_1)"/>
<path d="M244.359 3568.73H405.297C428.734 3568.73 449.047 3571.27 466.234 3576.34C483.422 3581.42 497.68 3588.78 509.008 3598.41C520.336 3607.92 528.734 3619.57 534.203 3633.38C539.802 3647.18 542.602 3662.74 542.602 3680.05C542.602 3696.33 539.867 3711.37 534.398 3725.17C528.93 3738.97 520.531 3750.95 509.203 3761.11C498.005 3771.14 483.812 3779.01 466.625 3784.74C449.438 3790.34 429.125 3793.14 405.688 3793.14L306.273 3792.95V3874H244.359V3568.73ZM406.859 3739.43C418.578 3739.43 428.799 3738.06 437.523 3735.33C446.378 3732.46 453.734 3728.49 459.594 3723.41C465.583 3718.21 470.01 3711.96 472.875 3704.66C475.87 3697.24 477.367 3689.04 477.367 3680.05C477.367 3661.96 471.443 3647.89 459.594 3637.87C447.875 3627.71 430.297 3622.63 406.859 3622.63H306.273V3739.43H406.859ZM643.148 3643.53H700.961V3676.73C713.721 3667.23 727.198 3659.03 741.391 3652.12C755.583 3645.22 769.711 3639.95 783.773 3636.3L800.766 3689.23C778.5 3691.45 758.904 3696.46 741.977 3704.27C725.18 3711.96 711.508 3722.83 700.961 3736.89V3874H643.148V3643.53ZM911.469 3902.91C917.458 3906.81 923.969 3910.26 931 3913.26C938.031 3916.25 945.323 3918.73 952.875 3920.68C960.557 3922.63 968.37 3924.07 976.312 3924.98C984.255 3926.02 992.133 3926.54 999.945 3926.54C1026.51 3926.54 1046.95 3920.81 1061.27 3909.35C1075.73 3898.02 1082.95 3880.97 1082.95 3858.18V3850.37C1077.88 3853.88 1072.15 3857.14 1065.77 3860.13C1059.52 3863 1052.74 3865.47 1045.45 3867.55C1038.29 3869.64 1030.67 3871.27 1022.6 3872.44C1014.66 3873.48 1006.59 3874 998.383 3874C980.805 3874 965.049 3871.46 951.117 3866.38C937.315 3861.17 925.596 3853.62 915.961 3843.73C906.456 3833.7 899.164 3821.4 894.086 3806.81C889.008 3792.23 886.469 3775.56 886.469 3756.81V3643.53H944.086V3740.8C944.086 3768.66 949.359 3789.23 959.906 3802.52C970.583 3815.67 987.38 3822.24 1010.3 3822.24C1026.44 3822.24 1040.7 3819.44 1053.07 3813.84C1065.57 3808.11 1075.53 3800.82 1082.95 3791.97V3643.53H1140.77V3847.63C1140.77 3869.64 1137.64 3888.71 1131.39 3904.86C1125.14 3921.14 1116.03 3934.61 1104.05 3945.29C1092.2 3955.97 1077.61 3963.91 1060.3 3969.12C1042.98 3974.46 1023.32 3977.12 1001.31 3977.12C979.828 3977.12 959.776 3974.85 941.156 3970.29C922.536 3965.73 905.479 3959.55 889.984 3951.73L911.469 3902.91ZM1264.75 3803.3C1280.38 3812.67 1297.56 3819.57 1316.31 3824C1335.06 3828.43 1354.27 3830.64 1373.93 3830.64C1387.21 3830.64 1398.28 3829.73 1407.13 3827.91C1415.99 3826.08 1423.08 3823.74 1428.42 3820.88C1433.76 3818.01 1437.54 3814.76 1439.75 3811.11C1441.96 3807.46 1443.07 3803.75 1443.07 3799.98C1443.07 3794.51 1440.66 3789.82 1435.84 3785.91C1431.16 3782.01 1423.34 3780.05 1412.41 3780.05C1407.33 3780.05 1401.86 3780.38 1396 3781.03C1390.14 3781.68 1383.96 3782.4 1377.45 3783.18C1371.07 3783.83 1364.36 3784.48 1357.33 3785.13C1350.43 3785.78 1343.4 3786.11 1336.23 3786.11C1320.61 3786.11 1307.26 3784.42 1296.2 3781.03C1285.26 3777.65 1276.34 3773.02 1269.44 3767.16C1262.54 3761.3 1257.52 3754.4 1254.4 3746.46C1251.27 3738.39 1249.71 3729.73 1249.71 3720.48C1249.71 3708.77 1252.45 3697.96 1257.91 3688.06C1263.38 3678.17 1271.2 3669.64 1281.35 3662.48C1291.51 3655.18 1303.75 3649.52 1318.07 3645.48C1332.52 3641.45 1348.6 3639.43 1366.31 3639.43C1375.56 3639.43 1385.19 3640.02 1395.22 3641.19C1405.38 3642.23 1415.34 3643.66 1425.1 3645.48C1434.87 3647.31 1444.24 3649.46 1453.23 3651.93C1462.21 3654.27 1470.15 3656.81 1477.05 3659.55L1458.89 3704.47C1444.18 3699 1429.46 3694.7 1414.75 3691.58C1400.17 3688.32 1385.13 3686.7 1369.63 3686.7C1358.83 3686.7 1349.65 3687.54 1342.09 3689.23C1334.67 3690.8 1328.62 3692.95 1323.93 3695.68C1319.24 3698.28 1315.79 3701.34 1313.58 3704.86C1311.49 3708.24 1310.45 3711.83 1310.45 3715.6C1310.45 3718.34 1310.97 3720.81 1312.02 3723.02C1313.19 3725.24 1315.01 3727.19 1317.48 3728.88C1320.09 3730.45 1323.41 3731.68 1327.45 3732.59C1331.61 3733.38 1336.69 3733.77 1342.68 3733.77C1348.15 3733.77 1353.94 3733.44 1360.06 3732.79C1366.18 3732.14 1372.56 3731.49 1379.2 3730.84C1385.84 3730.05 1392.68 3729.34 1399.71 3728.69C1406.87 3728.04 1414.16 3727.71 1421.59 3727.71C1435.39 3727.71 1447.43 3729.34 1457.72 3732.59C1468.14 3735.85 1476.73 3740.41 1483.5 3746.27C1490.27 3752.12 1495.35 3759.03 1498.73 3766.97C1502.12 3774.91 1503.81 3783.57 1503.81 3792.95C1503.81 3805.05 1501.01 3816.32 1495.41 3826.73C1489.82 3837.15 1481.48 3846.2 1470.41 3853.88C1459.35 3861.43 1445.54 3867.36 1429.01 3871.66C1412.6 3875.95 1393.59 3878.1 1371.98 3878.1C1358.7 3878.1 1345.87 3877.26 1333.5 3875.56C1321.13 3874 1309.35 3871.85 1298.15 3869.12C1286.95 3866.25 1276.4 3862.93 1266.51 3859.16C1256.74 3855.38 1247.82 3851.34 1239.75 3847.05L1264.75 3803.3ZM1597.52 3643.53H1655.34V3663.06C1669.79 3654.21 1683.85 3648.09 1697.52 3644.7C1711.33 3641.19 1724.8 3639.43 1737.95 3639.43C1756.31 3639.43 1773.17 3642.36 1788.54 3648.22C1803.9 3654.08 1817.05 3662.93 1827.99 3674.78C1836.46 3668.27 1844.79 3662.8 1852.99 3658.38C1861.2 3653.82 1869.4 3650.17 1877.6 3647.44C1885.8 3644.57 1894.14 3642.55 1902.6 3641.38C1911.07 3640.08 1919.79 3639.43 1928.77 3639.43C1947.65 3639.43 1964.78 3642.03 1980.14 3647.24C1995.51 3652.32 2008.59 3659.94 2019.4 3670.09C2030.34 3680.25 2038.73 3692.95 2044.59 3708.18C2050.58 3723.28 2053.58 3740.8 2053.58 3760.72V3874H1995.96V3770.09C1995.96 3757.46 1994.14 3746.2 1990.49 3736.3C1986.98 3726.28 1981.96 3717.88 1975.45 3711.11C1969.07 3704.21 1961.39 3699 1952.41 3695.48C1943.55 3691.84 1933.79 3690.02 1923.11 3690.02C1917.25 3690.02 1911.26 3690.6 1905.14 3691.77C1899.02 3692.82 1893.03 3694.51 1887.17 3696.85C1881.44 3699.2 1876.04 3702.19 1870.96 3705.84C1865.88 3709.35 1861.46 3713.52 1857.68 3718.34V3874H1800.06V3770.09C1800.06 3757.46 1798.24 3746.2 1794.59 3736.3C1791.08 3726.28 1786.07 3717.88 1779.55 3711.11C1773.17 3704.21 1765.43 3699 1756.31 3695.48C1747.33 3691.84 1737.43 3690.02 1726.62 3690.02C1719.98 3690.02 1713.28 3690.73 1706.51 3692.16C1699.87 3693.47 1693.42 3695.35 1687.17 3697.83C1681.05 3700.3 1675.26 3703.3 1669.79 3706.81C1664.45 3710.33 1659.63 3714.3 1655.34 3718.73V3874H1597.52V3643.53ZM2155.49 3801.34C2155.49 3790.28 2157.9 3780.18 2162.72 3771.07C2167.54 3761.96 2174.76 3754.14 2184.4 3747.63C2194.03 3740.99 2206.01 3735.91 2220.34 3732.4C2234.79 3728.75 2251.59 3726.93 2270.73 3726.93C2284.92 3726.93 2299.83 3727.97 2315.45 3730.05C2331.21 3732.14 2347.42 3735.33 2364.09 3739.62C2363.43 3732.33 2361.22 3725.63 2357.45 3719.51C2353.67 3713.26 2348.4 3707.92 2341.62 3703.49C2334.98 3698.93 2326.91 3695.42 2317.41 3692.95C2308.03 3690.47 2297.35 3689.23 2285.38 3689.23C2278.86 3689.23 2271.7 3689.62 2263.89 3690.41C2256.08 3691.19 2248.01 3692.36 2239.67 3693.92C2231.34 3695.48 2223.07 3697.44 2214.87 3699.78C2206.79 3702.12 2199.24 3704.92 2192.21 3708.18L2174.63 3660.72C2183.36 3657.59 2192.67 3654.73 2202.56 3652.12C2212.59 3649.52 2222.81 3647.31 2233.23 3645.48C2243.64 3643.53 2254.06 3642.03 2264.48 3640.99C2274.89 3639.95 2284.98 3639.43 2294.75 3639.43C2337.85 3639.43 2369.88 3650.43 2390.84 3672.44C2411.81 3694.44 2422.29 3728.17 2422.29 3773.61V3874H2364.48V3852.32C2358.49 3855.84 2351.91 3859.16 2344.75 3862.28C2337.72 3865.41 2330.04 3868.14 2321.7 3870.48C2313.37 3872.83 2304.39 3874.65 2294.75 3875.95C2285.24 3877.39 2275.15 3878.1 2264.48 3878.1C2246.51 3878.1 2230.69 3876.15 2217.02 3872.24C2203.47 3868.34 2192.15 3862.93 2183.03 3856.03C2173.92 3849.13 2167.02 3841.06 2162.33 3831.81C2157.77 3822.44 2155.49 3812.28 2155.49 3801.34ZM2216.43 3799.39C2216.43 3803.17 2217.41 3806.81 2219.36 3810.33C2221.31 3813.71 2224.44 3816.77 2228.73 3819.51C2233.03 3822.11 2238.5 3824.26 2245.14 3825.95C2251.91 3827.52 2260.05 3828.3 2269.55 3828.3C2279.71 3828.3 2289.54 3827.39 2299.05 3825.56C2308.55 3823.74 2317.41 3821.33 2325.61 3818.34C2333.81 3815.34 2341.23 3811.89 2347.88 3807.98C2354.52 3804.08 2360.05 3800.04 2364.48 3795.88V3785.72C2355.62 3783.24 2346.83 3781.16 2338.11 3779.47C2329.52 3777.78 2321.25 3776.47 2313.3 3775.56C2305.49 3774.52 2298.07 3773.8 2291.04 3773.41C2284.14 3773.02 2278.08 3772.83 2272.88 3772.83C2262.07 3772.83 2253.08 3773.54 2245.92 3774.98C2238.76 3776.41 2232.97 3778.36 2228.54 3780.84C2224.11 3783.18 2220.99 3785.98 2219.16 3789.23C2217.34 3792.49 2216.43 3795.88 2216.43 3799.39ZM2573.62 3686.89H2517.95V3643.53H2573.62V3571.85H2631.43V3643.53H2687.09V3686.89H2631.43V3874H2573.62V3686.89ZM2808.93 3612.09C2803.2 3612.09 2797.99 3611.3 2793.3 3609.74C2788.75 3608.05 2784.84 3605.84 2781.59 3603.1C2778.33 3600.24 2775.79 3596.98 2773.97 3593.34C2772.28 3589.56 2771.43 3585.59 2771.43 3581.42C2771.43 3577.12 2772.28 3573.15 2773.97 3569.51C2775.79 3565.73 2778.33 3562.48 2781.59 3559.74C2784.84 3557.01 2788.75 3554.86 2793.3 3553.3C2797.99 3551.6 2803.2 3550.76 2808.93 3550.76C2814.79 3550.76 2820 3551.6 2824.55 3553.3C2829.24 3554.86 2833.21 3557.01 2836.47 3559.74C2839.72 3562.48 2842.2 3565.73 2843.89 3569.51C2845.71 3573.15 2846.62 3577.12 2846.62 3581.42C2846.62 3585.59 2845.71 3589.56 2843.89 3593.34C2842.2 3596.98 2839.72 3600.24 2836.47 3603.1C2833.21 3605.84 2829.24 3608.05 2824.55 3609.74C2820 3611.3 2814.79 3612.09 2808.93 3612.09ZM2780.02 3643.53H2837.84V3874H2780.02V3643.53ZM2938.19 3759.35C2938.19 3742.42 2941.25 3726.67 2947.37 3712.09C2953.62 3697.37 2962.67 3684.68 2974.52 3674C2986.49 3663.19 3001.08 3654.73 3018.27 3648.61C3035.58 3642.49 3055.31 3639.43 3077.45 3639.43C3087.08 3639.43 3096.78 3640.02 3106.55 3641.19C3116.31 3642.36 3125.69 3644.05 3134.67 3646.27C3143.79 3648.35 3152.32 3650.89 3160.26 3653.88C3168.2 3656.75 3175.1 3659.94 3180.96 3663.45L3154.2 3707.01C3141.57 3701.15 3129.59 3696.85 3118.27 3694.12C3107.07 3691.38 3095.67 3690.02 3084.09 3690.02C3070.8 3690.02 3058.89 3691.77 3048.34 3695.29C3037.8 3698.67 3028.81 3703.49 3021.39 3709.74C3014.1 3715.86 3008.5 3723.15 3004.59 3731.62C3000.82 3739.95 2998.93 3749.07 2998.93 3758.96C2998.93 3768.86 3000.95 3778.04 3004.98 3786.5C3009.15 3794.83 3014.95 3802.06 3022.37 3808.18C3029.92 3814.17 3038.97 3818.92 3049.52 3822.44C3060.19 3825.82 3072.04 3827.52 3085.06 3827.52C3099.39 3827.52 3112.86 3825.5 3125.49 3821.46C3138.25 3817.42 3150.1 3812.02 3161.04 3805.25L3187.8 3848.8C3180.9 3852.97 3173.41 3856.88 3165.34 3860.52C3157.26 3864.04 3148.6 3867.1 3139.36 3869.7C3130.24 3872.31 3120.61 3874.33 3110.45 3875.76C3100.43 3877.32 3090.01 3878.1 3079.2 3878.1C3057.2 3878.1 3037.47 3875.11 3020.02 3869.12C3002.58 3863.13 2987.8 3854.86 2975.69 3844.31C2963.58 3833.64 2954.27 3821.07 2947.76 3806.62C2941.38 3792.16 2938.19 3776.41 2938.19 3759.35Z" fill="black"/>
<path d="M1060.35 4169.8L1064.75 4168.8C1068.49 4167.6 1071.29 4166 1073.15 4164C1075.15 4161.87 1076.15 4158.53 1076.15 4154V4062.4C1076.15 4060.8 1075.82 4059.73 1075.15 4059.2C1074.49 4058.53 1073.49 4058.2 1072.15 4058.2H1061.75L1059.55 4051.4C1065.29 4049.4 1072.75 4047.6 1081.95 4046C1091.15 4044.27 1100.02 4043.4 1108.55 4043.4C1133.75 4043.4 1151.89 4049.67 1162.95 4062.2C1174.02 4074.73 1179.55 4091.07 1179.55 4111.2C1179.55 4123.47 1177.29 4134.53 1172.75 4144.4C1168.22 4154.13 1161.42 4161.87 1152.35 4167.6C1143.42 4173.2 1132.42 4176 1119.35 4176H1062.55L1060.35 4169.8ZM1113.75 4166.8C1144.55 4166.8 1159.95 4148.13 1159.95 4110.8C1159.95 4100.53 1158.15 4091.07 1154.55 4082.4C1151.09 4073.73 1145.75 4066.73 1138.55 4061.4C1131.35 4056.07 1122.49 4053.4 1111.95 4053.4C1100.09 4053.4 1094.15 4056.27 1094.15 4062V4144.2C1094.15 4152.87 1095.95 4158.8 1099.55 4162C1103.15 4165.2 1107.89 4166.8 1113.75 4166.8ZM1275.57 4178.6C1267.17 4178.6 1259.84 4176.67 1253.57 4172.8C1247.3 4168.93 1242.44 4163.53 1238.97 4156.6C1235.5 4149.53 1233.77 4141.4 1233.77 4132.2C1233.77 4122.6 1235.7 4114.13 1239.57 4106.8C1243.44 4099.47 1248.9 4093.8 1255.97 4089.8C1263.17 4085.8 1271.44 4083.8 1280.77 4083.8C1290.64 4083.8 1298.24 4086.4 1303.57 4091.6C1309.04 4096.8 1311.77 4103.07 1311.77 4110.4C1311.77 4115.47 1310.37 4120.33 1307.57 4125C1304.9 4129.67 1300.9 4133.47 1295.57 4136.4C1290.37 4139.33 1284.24 4140.8 1277.17 4140.8C1273.17 4140.8 1268.84 4140.13 1264.17 4138.8C1259.5 4137.33 1257.17 4135.2 1257.17 4132.4C1257.17 4131.33 1257.44 4130.4 1257.97 4129.6C1258.5 4128.8 1259.1 4128.4 1259.77 4128.4C1260.17 4128.4 1261.37 4128.8 1263.37 4129.6C1265.5 4130.27 1268.24 4130.6 1271.57 4130.6C1278.9 4130.6 1284.57 4128.6 1288.57 4124.6C1292.57 4120.6 1294.57 4115.8 1294.57 4110.2C1294.57 4105.4 1292.97 4101.27 1289.77 4097.8C1286.7 4094.33 1282.57 4092.6 1277.37 4092.6C1269.5 4092.6 1263.37 4096.07 1258.97 4103C1254.7 4109.8 1252.57 4119.53 1252.57 4132.2C1252.57 4143 1254.84 4151.47 1259.37 4157.6C1264.04 4163.6 1270.7 4166.6 1279.37 4166.6C1290.04 4166.6 1298.84 4163.13 1305.77 4156.2C1306.17 4155.8 1306.7 4155.6 1307.37 4155.6C1308.44 4155.6 1309.5 4156.13 1310.57 4157.2C1311.77 4158.27 1312.37 4159.4 1312.37 4160.6C1312.37 4161 1312.24 4161.4 1311.97 4161.8C1311.7 4162.07 1311.57 4162.27 1311.57 4162.4C1307.04 4167.73 1301.64 4171.8 1295.37 4174.6C1289.24 4177.27 1282.64 4178.6 1275.57 4178.6ZM1402.87 4178.6C1393.81 4178.6 1386.27 4176.53 1380.27 4172.4C1374.27 4168.13 1371.27 4162.6 1371.27 4155.8C1371.27 4151.8 1372.67 4148.47 1375.47 4145.8C1378.41 4143 1382.07 4141.6 1386.47 4141.6C1387.41 4141.6 1388.27 4141.8 1389.07 4142.2C1389.87 4142.6 1390.27 4143.13 1390.27 4143.8C1390.27 4144.2 1389.87 4145.4 1389.07 4147.4C1388.27 4149.27 1387.87 4151.53 1387.87 4154.2C1387.87 4159.13 1389.61 4162.93 1393.07 4165.6C1396.67 4168.27 1400.67 4169.6 1405.07 4169.6C1410.14 4169.6 1414.27 4168.27 1417.47 4165.6C1420.67 4162.93 1422.27 4159.47 1422.27 4155.2C1422.27 4151.33 1420.54 4148.13 1417.07 4145.6C1413.74 4143.07 1408.87 4140.47 1402.47 4137.8C1396.61 4135.27 1391.67 4132.87 1387.67 4130.6C1383.81 4128.33 1380.47 4125.33 1377.67 4121.6C1374.87 4117.87 1373.47 4113.33 1373.47 4108C1373.47 4100.93 1376.61 4095.13 1382.87 4090.6C1389.14 4086.07 1397.01 4083.8 1406.47 4083.8C1415.14 4083.8 1422.27 4085.47 1427.87 4088.8C1433.47 4092 1436.27 4096.47 1436.27 4102.2C1436.27 4106.87 1434.87 4110.67 1432.07 4113.6C1429.27 4116.53 1425.61 4118 1421.07 4118C1418.41 4118 1417.07 4117.13 1417.07 4115.4C1417.07 4114.87 1417.54 4113.67 1418.47 4111.8C1419.54 4109.93 1420.07 4107.8 1420.07 4105.4C1420.07 4101.13 1418.54 4097.93 1415.47 4095.8C1412.41 4093.53 1408.94 4092.4 1405.07 4092.4C1400.14 4092.4 1396.21 4093.6 1393.27 4096C1390.47 4098.4 1389.07 4101.53 1389.07 4105.4C1389.07 4109.93 1390.94 4113.67 1394.67 4116.6C1398.41 4119.4 1403.67 4122.07 1410.47 4124.6C1416.34 4127.13 1421.21 4129.47 1425.07 4131.6C1428.94 4133.73 1432.21 4136.47 1434.87 4139.8C1437.54 4143 1438.87 4146.8 1438.87 4151.2C1438.87 4159.47 1435.54 4166.13 1428.87 4171.2C1422.34 4176.13 1413.67 4178.6 1402.87 4178.6ZM1538.38 4178.6C1529.98 4178.6 1522.65 4176.67 1516.38 4172.8C1510.12 4168.93 1505.25 4163.53 1501.78 4156.6C1498.32 4149.53 1496.58 4141.4 1496.58 4132.2C1496.58 4122.6 1498.52 4114.13 1502.38 4106.8C1506.25 4099.47 1511.72 4093.8 1518.78 4089.8C1525.98 4085.8 1534.25 4083.8 1543.58 4083.8C1553.45 4083.8 1561.05 4086.4 1566.38 4091.6C1571.85 4096.8 1574.58 4103.07 1574.58 4110.4C1574.58 4115.47 1573.18 4120.33 1570.38 4125C1567.72 4129.67 1563.72 4133.47 1558.38 4136.4C1553.18 4139.33 1547.05 4140.8 1539.98 4140.8C1535.98 4140.8 1531.65 4140.13 1526.98 4138.8C1522.32 4137.33 1519.98 4135.2 1519.98 4132.4C1519.98 4131.33 1520.25 4130.4 1520.78 4129.6C1521.32 4128.8 1521.92 4128.4 1522.58 4128.4C1522.98 4128.4 1524.18 4128.8 1526.18 4129.6C1528.32 4130.27 1531.05 4130.6 1534.38 4130.6C1541.72 4130.6 1547.38 4128.6 1551.38 4124.6C1555.38 4120.6 1557.38 4115.8 1557.38 4110.2C1557.38 4105.4 1555.78 4101.27 1552.58 4097.8C1549.52 4094.33 1545.38 4092.6 1540.18 4092.6C1532.32 4092.6 1526.18 4096.07 1521.78 4103C1517.52 4109.8 1515.38 4119.53 1515.38 4132.2C1515.38 4143 1517.65 4151.47 1522.18 4157.6C1526.85 4163.6 1533.52 4166.6 1542.18 4166.6C1552.85 4166.6 1561.65 4163.13 1568.58 4156.2C1568.98 4155.8 1569.52 4155.6 1570.18 4155.6C1571.25 4155.6 1572.32 4156.13 1573.38 4157.2C1574.58 4158.27 1575.18 4159.4 1575.18 4160.6C1575.18 4161 1575.05 4161.4 1574.78 4161.8C1574.52 4162.07 1574.38 4162.27 1574.38 4162.4C1569.85 4167.73 1564.45 4171.8 1558.18 4174.6C1552.05 4177.27 1545.45 4178.6 1538.38 4178.6ZM1716.89 4178.6C1711.95 4178.6 1708.42 4177.13 1706.29 4174.2C1704.15 4171.13 1703.09 4166.2 1703.09 4159.4V4116.2C1703.09 4110.07 1701.75 4105.47 1699.09 4102.4C1696.42 4099.2 1692.49 4097.6 1687.29 4097.6C1682.09 4097.6 1677.49 4099.67 1673.49 4103.8C1669.62 4107.93 1666.62 4113.73 1664.49 4121.2C1662.35 4128.67 1661.29 4137.27 1661.29 4147C1661.29 4152.6 1661.69 4157.13 1662.49 4160.6C1663.42 4164.07 1664.95 4167.33 1667.09 4170.4L1669.29 4173.2L1667.09 4176H1635.29L1633.49 4170.4L1636.89 4169.4C1640.09 4168.87 1642.15 4167.67 1643.09 4165.8C1644.15 4163.8 1644.69 4160.47 1644.69 4155.8V4105C1644.69 4103.53 1644.42 4102.53 1643.89 4102C1643.35 4101.33 1642.42 4101 1641.09 4101H1633.29L1631.49 4096.2C1634.95 4093 1638.95 4090.4 1643.49 4088.4C1648.02 4086.4 1652.02 4085.4 1655.49 4085.4C1657.22 4085.4 1658.62 4085.93 1659.69 4087C1660.75 4088.07 1661.29 4089.4 1661.29 4091V4110.8C1664.35 4102.93 1669.02 4096.47 1675.29 4091.4C1681.55 4086.33 1688.15 4083.8 1695.09 4083.8C1703.49 4083.8 1709.62 4086.4 1713.49 4091.6C1717.49 4096.8 1719.49 4105 1719.49 4116.2V4160C1719.49 4164.13 1721.29 4166.2 1724.89 4166.2C1727.82 4166.2 1730.82 4164.93 1733.89 4162.4L1737.29 4167C1734.22 4170.47 1730.82 4173.27 1727.09 4175.4C1723.35 4177.53 1719.95 4178.6 1716.89 4178.6ZM1829.09 4178.6C1822.82 4178.6 1817.76 4177.4 1813.89 4175C1810.16 4172.6 1807.16 4168.8 1804.89 4163.6C1802.76 4158.27 1801.02 4150.87 1799.69 4141.4L1793.69 4103.4C1793.42 4101.67 1793.09 4100.53 1792.69 4100C1792.29 4099.33 1791.49 4099 1790.29 4099H1782.49L1780.69 4094.6C1783.89 4091.53 1787.62 4089 1791.89 4087C1796.29 4084.87 1800.16 4083.8 1803.49 4083.8C1806.82 4083.8 1808.82 4085.6 1809.49 4089.2L1817.49 4146.2C1818.56 4153.4 1820.16 4158.67 1822.29 4162C1824.42 4165.2 1827.49 4166.8 1831.49 4166.8C1838.96 4166.8 1844.62 4162.53 1848.49 4154C1852.36 4145.47 1854.29 4135.07 1854.29 4122.8C1854.29 4117.07 1853.56 4111.47 1852.09 4106C1850.76 4100.4 1848.76 4095.47 1846.09 4091.2L1844.49 4088.4L1846.49 4086.2L1868.29 4083.8C1868.82 4092.33 1869.09 4098.73 1869.09 4103C1869.09 4119 1867.22 4132.73 1863.49 4144.2C1859.89 4155.53 1855.02 4164.13 1848.89 4170C1842.89 4175.73 1836.29 4178.6 1829.09 4178.6ZM1973.09 4178.6C1959.49 4178.6 1948.69 4174.33 1940.69 4165.8C1932.69 4157.13 1928.69 4145.53 1928.69 4131C1928.69 4116.47 1932.69 4105 1940.69 4096.6C1948.69 4088.07 1959.49 4083.8 1973.09 4083.8C1982.02 4083.8 1989.82 4085.73 1996.49 4089.6C2003.16 4093.47 2008.29 4098.93 2011.89 4106C2015.49 4113.07 2017.29 4121.4 2017.29 4131C2017.29 4140.6 2015.42 4149 2011.69 4156.2C2008.09 4163.4 2002.96 4168.93 1996.29 4172.8C1989.62 4176.67 1981.89 4178.6 1973.09 4178.6ZM1972.69 4168.8C1980.29 4168.8 1986.42 4165.4 1991.09 4158.6C1995.89 4151.67 1998.29 4142.6 1998.29 4131.4C1998.29 4125.67 1997.49 4119.93 1995.89 4114.2C1994.29 4108.33 1991.62 4103.4 1987.89 4099.4C1984.29 4095.27 1979.56 4093.2 1973.69 4093.2C1965.82 4093.2 1959.49 4096.67 1954.69 4103.6C1950.02 4110.53 1947.69 4119.73 1947.69 4131.2C1947.69 4142.67 1949.89 4151.8 1954.29 4158.6C1958.82 4165.4 1964.96 4168.8 1972.69 4168.8ZM2097.18 4178.6C2092.11 4178.6 2088.45 4177.13 2086.18 4174.2C2084.05 4171.13 2082.98 4166.2 2082.98 4159.4V4053.8C2082.98 4052.33 2082.71 4051.33 2082.18 4050.8C2081.65 4050.13 2080.71 4049.8 2079.38 4049.8H2071.58L2069.78 4045.2C2073.25 4042 2077.25 4039.4 2081.78 4037.4C2086.31 4035.27 2090.38 4034.2 2093.98 4034.2C2095.71 4034.2 2097.11 4034.73 2098.18 4035.8C2099.25 4036.87 2099.78 4038.27 2099.78 4040L2099.38 4160C2099.38 4162 2099.85 4163.53 2100.78 4164.6C2101.71 4165.67 2103.05 4166.2 2104.78 4166.2C2108.11 4166.2 2111.11 4164.93 2113.78 4162.4L2117.38 4167C2114.31 4170.47 2110.91 4173.27 2107.18 4175.4C2103.45 4177.53 2100.11 4178.6 2097.18 4178.6ZM2208.27 4178.6C2202 4178.6 2196.94 4177.4 2193.07 4175C2189.34 4172.6 2186.34 4168.8 2184.07 4163.6C2181.94 4158.27 2180.2 4150.87 2178.87 4141.4L2172.87 4103.4C2172.6 4101.67 2172.27 4100.53 2171.87 4100C2171.47 4099.33 2170.67 4099 2169.47 4099H2161.67L2159.87 4094.6C2163.07 4091.53 2166.8 4089 2171.07 4087C2175.47 4084.87 2179.34 4083.8 2182.67 4083.8C2186 4083.8 2188 4085.6 2188.67 4089.2L2196.67 4146.2C2197.74 4153.4 2199.34 4158.67 2201.47 4162C2203.6 4165.2 2206.67 4166.8 2210.67 4166.8C2218.14 4166.8 2223.8 4162.53 2227.67 4154C2231.54 4145.47 2233.47 4135.07 2233.47 4122.8C2233.47 4117.07 2232.74 4111.47 2231.27 4106C2229.94 4100.4 2227.94 4095.47 2225.27 4091.2L2223.67 4088.4L2225.67 4086.2L2247.47 4083.8C2248 4092.33 2248.27 4098.73 2248.27 4103C2248.27 4119 2246.4 4132.73 2242.67 4144.2C2239.07 4155.53 2234.2 4164.13 2228.07 4170C2222.07 4175.73 2215.47 4178.6 2208.27 4178.6ZM2349.67 4178.6C2341.27 4178.6 2333.94 4176.67 2327.67 4172.8C2321.4 4168.93 2316.54 4163.53 2313.07 4156.6C2309.6 4149.53 2307.87 4141.4 2307.87 4132.2C2307.87 4122.6 2309.8 4114.13 2313.67 4106.8C2317.54 4099.47 2323 4093.8 2330.07 4089.8C2337.27 4085.8 2345.54 4083.8 2354.87 4083.8C2364.74 4083.8 2372.34 4086.4 2377.67 4091.6C2383.14 4096.8 2385.87 4103.07 2385.87 4110.4C2385.87 4115.47 2384.47 4120.33 2381.67 4125C2379 4129.67 2375 4133.47 2369.67 4136.4C2364.47 4139.33 2358.34 4140.8 2351.27 4140.8C2347.27 4140.8 2342.94 4140.13 2338.27 4138.8C2333.6 4137.33 2331.27 4135.2 2331.27 4132.4C2331.27 4131.33 2331.54 4130.4 2332.07 4129.6C2332.6 4128.8 2333.2 4128.4 2333.87 4128.4C2334.27 4128.4 2335.47 4128.8 2337.47 4129.6C2339.6 4130.27 2342.34 4130.6 2345.67 4130.6C2353 4130.6 2358.67 4128.6 2362.67 4124.6C2366.67 4120.6 2368.67 4115.8 2368.67 4110.2C2368.67 4105.4 2367.07 4101.27 2363.87 4097.8C2360.8 4094.33 2356.67 4092.6 2351.47 4092.6C2343.6 4092.6 2337.47 4096.07 2333.07 4103C2328.8 4109.8 2326.67 4119.53 2326.67 4132.2C2326.67 4143 2328.94 4151.47 2333.47 4157.6C2338.14 4163.6 2344.8 4166.6 2353.47 4166.6C2364.14 4166.6 2372.94 4163.13 2379.87 4156.2C2380.27 4155.8 2380.8 4155.6 2381.47 4155.6C2382.54 4155.6 2383.6 4156.13 2384.67 4157.2C2385.87 4158.27 2386.47 4159.4 2386.47 4160.6C2386.47 4161 2386.34 4161.4 2386.07 4161.8C2385.8 4162.07 2385.67 4162.27 2385.67 4162.4C2381.14 4167.73 2375.74 4171.8 2369.47 4174.6C2363.34 4177.27 2356.74 4178.6 2349.67 4178.6ZM2528.17 4178.6C2523.24 4178.6 2519.71 4177.13 2517.57 4174.2C2515.44 4171.13 2514.37 4166.2 2514.37 4159.4V4116.2C2514.37 4110.07 2513.04 4105.47 2510.37 4102.4C2507.71 4099.2 2503.77 4097.6 2498.57 4097.6C2493.37 4097.6 2488.77 4099.67 2484.77 4103.8C2480.91 4107.93 2477.91 4113.73 2475.77 4121.2C2473.64 4128.67 2472.57 4137.27 2472.57 4147C2472.57 4152.6 2472.97 4157.13 2473.77 4160.6C2474.71 4164.07 2476.24 4167.33 2478.37 4170.4L2480.57 4173.2L2478.37 4176H2446.57L2444.77 4170.4L2448.17 4169.4C2451.37 4168.87 2453.44 4167.67 2454.37 4165.8C2455.44 4163.8 2455.97 4160.47 2455.97 4155.8V4105C2455.97 4103.53 2455.71 4102.53 2455.17 4102C2454.64 4101.33 2453.71 4101 2452.37 4101H2444.57L2442.77 4096.2C2446.24 4093 2450.24 4090.4 2454.77 4088.4C2459.31 4086.4 2463.31 4085.4 2466.77 4085.4C2468.51 4085.4 2469.91 4085.93 2470.97 4087C2472.04 4088.07 2472.57 4089.4 2472.57 4091V4110.8C2475.64 4102.93 2480.31 4096.47 2486.57 4091.4C2492.84 4086.33 2499.44 4083.8 2506.37 4083.8C2514.77 4083.8 2520.91 4086.4 2524.77 4091.6C2528.77 4096.8 2530.77 4105 2530.77 4116.2V4160C2530.77 4164.13 2532.57 4166.2 2536.17 4166.2C2539.11 4166.2 2542.11 4164.93 2545.17 4162.4L2548.57 4167C2545.51 4170.47 2542.11 4173.27 2538.37 4175.4C2534.64 4177.53 2531.24 4178.6 2528.17 4178.6ZM2632.78 4178.6C2626.91 4178.6 2621.45 4176.93 2616.38 4173.6C2611.45 4170.13 2607.45 4165.13 2604.38 4158.6C2601.45 4151.93 2599.98 4143.87 2599.98 4134.4C2599.98 4118.8 2604.18 4106.47 2612.58 4097.4C2621.11 4088.33 2632.58 4083.8 2646.98 4083.8C2654.05 4083.8 2659.78 4084.53 2664.18 4086V4053.8C2664.18 4052.33 2663.91 4051.33 2663.38 4050.8C2662.85 4050.13 2661.98 4049.8 2660.78 4049.8H2652.78L2651.18 4045.2C2654.51 4042 2658.45 4039.4 2662.98 4037.4C2667.51 4035.27 2671.45 4034.2 2674.78 4034.2C2676.51 4034.2 2677.91 4034.73 2678.98 4035.8C2680.05 4036.87 2680.58 4038.27 2680.58 4040V4160C2680.58 4163.73 2682.51 4165.6 2686.38 4165.6C2689.31 4165.6 2692.31 4164.53 2695.38 4162.4L2698.78 4167C2695.58 4170.6 2692.18 4173.47 2688.58 4175.6C2684.98 4177.6 2681.71 4178.6 2678.78 4178.6C2673.71 4178.6 2670.05 4177.13 2667.78 4174.2C2665.51 4171.13 2664.38 4166.2 2664.38 4159.4C2659.58 4166.47 2654.58 4171.47 2649.38 4174.4C2644.31 4177.2 2638.78 4178.6 2632.78 4178.6ZM2639.78 4164.4C2649.91 4164.4 2658.11 4158.93 2664.38 4148V4099C2659.18 4095.53 2653.31 4093.8 2646.78 4093.8C2638.11 4093.8 2631.31 4097.07 2626.38 4103.6C2621.58 4110 2619.18 4119.13 2619.18 4131C2619.18 4142.47 2621.11 4150.93 2624.98 4156.4C2628.98 4161.73 2633.91 4164.4 2639.78 4164.4ZM2793.56 4178.6C2779.96 4178.6 2769.16 4174.33 2761.16 4165.8C2753.16 4157.13 2749.16 4145.53 2749.16 4131C2749.16 4116.47 2753.16 4105 2761.16 4096.6C2769.16 4088.07 2779.96 4083.8 2793.56 4083.8C2802.49 4083.8 2810.29 4085.73 2816.96 4089.6C2823.63 4093.47 2828.76 4098.93 2832.36 4106C2835.96 4113.07 2837.76 4121.4 2837.76 4131C2837.76 4140.6 2835.89 4149 2832.16 4156.2C2828.56 4163.4 2823.43 4168.93 2816.76 4172.8C2810.09 4176.67 2802.36 4178.6 2793.56 4178.6ZM2793.16 4168.8C2800.76 4168.8 2806.89 4165.4 2811.56 4158.6C2816.36 4151.67 2818.76 4142.6 2818.76 4131.4C2818.76 4125.67 2817.96 4119.93 2816.36 4114.2C2814.76 4108.33 2812.09 4103.4 2808.36 4099.4C2804.76 4095.27 2800.03 4093.2 2794.16 4093.2C2786.29 4093.2 2779.96 4096.67 2775.16 4103.6C2770.49 4110.53 2768.16 4119.73 2768.16 4131.2C2768.16 4142.67 2770.36 4151.8 2774.76 4158.6C2779.29 4165.4 2785.43 4168.8 2793.16 4168.8Z" fill="#FDFBFB"/>
<path d="M2851.76 4416.8L2856.16 4415.8C2860.7 4414.6 2863.7 4412.93 2865.16 4410.8C2866.76 4408.53 2867.56 4404.6 2867.56 4399V4309.4C2867.56 4307.8 2867.23 4306.73 2866.56 4306.2C2865.9 4305.53 2864.9 4305.2 2863.56 4305.2H2853.16L2850.96 4298.4C2856.16 4296.4 2863.03 4294.6 2871.56 4293C2880.1 4291.27 2888.3 4290.4 2896.16 4290.4C2913.9 4290.4 2927.1 4294.4 2935.76 4302.4C2944.43 4310.4 2948.76 4320.73 2948.76 4333.4C2948.76 4341.27 2947.16 4348.4 2943.96 4354.8C2940.9 4361.2 2936.1 4366.33 2929.56 4370.2C2923.16 4373.93 2915.16 4375.8 2905.56 4375.8C2901.3 4375.8 2897.56 4375.27 2894.36 4374.2C2891.16 4373 2889.56 4371.4 2889.56 4369.4C2889.56 4368.2 2889.76 4367.2 2890.16 4366.4C2890.7 4365.47 2891.43 4365 2892.36 4365C2892.76 4365 2893.76 4365.27 2895.36 4365.8C2896.96 4366.2 2898.9 4366.4 2901.16 4366.4C2910.23 4366.4 2917.3 4363.47 2922.36 4357.6C2927.56 4351.73 2930.16 4343.93 2930.16 4334.2C2930.16 4324.33 2927.43 4316.27 2921.96 4310C2916.63 4303.6 2909.03 4300.4 2899.16 4300.4C2890.1 4300.4 2885.56 4303.27 2885.56 4309V4386.6C2885.56 4394.07 2886.16 4400 2887.36 4404.4C2888.56 4408.67 2890.7 4412.8 2893.76 4416.8L2896.16 4420L2893.76 4423H2853.96L2851.76 4416.8ZM3042.18 4425.6C3033.78 4425.6 3026.44 4423.67 3020.18 4419.8C3013.91 4415.93 3009.04 4410.53 3005.57 4403.6C3002.11 4396.53 3000.38 4388.4 3000.38 4379.2C3000.38 4369.6 3002.31 4361.13 3006.18 4353.8C3010.04 4346.47 3015.51 4340.8 3022.58 4336.8C3029.78 4332.8 3038.04 4330.8 3047.38 4330.8C3057.24 4330.8 3064.84 4333.4 3070.18 4338.6C3075.64 4343.8 3078.38 4350.07 3078.38 4357.4C3078.38 4362.47 3076.98 4367.33 3074.18 4372C3071.51 4376.67 3067.51 4380.47 3062.18 4383.4C3056.98 4386.33 3050.84 4387.8 3043.77 4387.8C3039.78 4387.8 3035.44 4387.13 3030.78 4385.8C3026.11 4384.33 3023.78 4382.2 3023.78 4379.4C3023.78 4378.33 3024.04 4377.4 3024.58 4376.6C3025.11 4375.8 3025.71 4375.4 3026.38 4375.4C3026.78 4375.4 3027.98 4375.8 3029.98 4376.6C3032.11 4377.27 3034.84 4377.6 3038.18 4377.6C3045.51 4377.6 3051.18 4375.6 3055.18 4371.6C3059.18 4367.6 3061.18 4362.8 3061.18 4357.2C3061.18 4352.4 3059.58 4348.27 3056.38 4344.8C3053.31 4341.33 3049.18 4339.6 3043.98 4339.6C3036.11 4339.6 3029.98 4343.07 3025.58 4350C3021.31 4356.8 3019.18 4366.53 3019.18 4379.2C3019.18 4390 3021.44 4398.47 3025.98 4404.6C3030.64 4410.6 3037.31 4413.6 3045.98 4413.6C3056.64 4413.6 3065.44 4410.13 3072.38 4403.2C3072.78 4402.8 3073.31 4402.6 3073.98 4402.6C3075.04 4402.6 3076.11 4403.13 3077.18 4404.2C3078.38 4405.27 3078.98 4406.4 3078.98 4407.6C3078.98 4408 3078.84 4408.4 3078.58 4408.8C3078.31 4409.07 3078.18 4409.27 3078.18 4409.4C3073.64 4414.73 3068.24 4418.8 3061.98 4421.6C3055.84 4424.27 3049.24 4425.6 3042.18 4425.6ZM3137.28 4417.4L3140.68 4416.4C3143.88 4415.87 3145.94 4414.67 3146.88 4412.8C3147.94 4410.8 3148.48 4407.47 3148.48 4402.8V4352C3148.48 4350.53 3148.21 4349.53 3147.68 4349C3147.14 4348.33 3146.21 4348 3144.88 4348H3137.08L3135.28 4343.2C3138.74 4340 3142.74 4337.4 3147.28 4335.4C3151.81 4333.4 3155.81 4332.4 3159.28 4332.4C3161.01 4332.4 3162.41 4332.93 3163.48 4334C3164.54 4335.07 3165.08 4336.4 3165.08 4338V4357.8H3166.08C3168.21 4349.67 3171.41 4343.13 3175.68 4338.2C3180.08 4333.27 3184.81 4330.8 3189.88 4330.8C3194.94 4330.8 3199.08 4332.47 3202.28 4335.8C3205.61 4339 3207.28 4343.47 3207.28 4349.2C3207.28 4353.73 3205.61 4357.53 3202.28 4360.6C3198.94 4363.67 3194.74 4365.2 3189.68 4365.2C3187.28 4365.2 3186.08 4364.6 3186.08 4363.4C3186.08 4363 3186.54 4362.07 3187.48 4360.6C3188.41 4359.13 3189.21 4357.67 3189.88 4356.2C3190.54 4354.73 3190.88 4353 3190.88 4351C3190.88 4348.73 3190.34 4347 3189.28 4345.8C3188.21 4344.47 3186.81 4343.8 3185.08 4343.8C3182.28 4343.8 3179.34 4345.53 3176.28 4349C3173.21 4352.47 3170.54 4358 3168.28 4365.6C3166.14 4373.2 3165.08 4382.87 3165.08 4394.6C3165.08 4400.07 3165.48 4404.53 3166.28 4408C3167.21 4411.33 3168.74 4414.47 3170.88 4417.4L3173.08 4420.2L3170.88 4423H3139.08L3137.28 4417.4ZM3288.78 4425.6C3279.71 4425.6 3272.18 4423.53 3266.18 4419.4C3260.18 4415.13 3257.18 4409.6 3257.18 4402.8C3257.18 4398.8 3258.58 4395.47 3261.38 4392.8C3264.31 4390 3267.98 4388.6 3272.38 4388.6C3273.31 4388.6 3274.18 4388.8 3274.98 4389.2C3275.78 4389.6 3276.18 4390.13 3276.18 4390.8C3276.18 4391.2 3275.78 4392.4 3274.98 4394.4C3274.18 4396.27 3273.77 4398.53 3273.77 4401.2C3273.77 4406.13 3275.51 4409.93 3278.98 4412.6C3282.58 4415.27 3286.58 4416.6 3290.98 4416.6C3296.04 4416.6 3300.18 4415.27 3303.38 4412.6C3306.58 4409.93 3308.18 4406.47 3308.18 4402.2C3308.18 4398.33 3306.44 4395.13 3302.98 4392.6C3299.64 4390.07 3294.78 4387.47 3288.38 4384.8C3282.51 4382.27 3277.58 4379.87 3273.58 4377.6C3269.71 4375.33 3266.38 4372.33 3263.58 4368.6C3260.78 4364.87 3259.38 4360.33 3259.38 4355C3259.38 4347.93 3262.51 4342.13 3268.78 4337.6C3275.04 4333.07 3282.91 4330.8 3292.38 4330.8C3301.04 4330.8 3308.18 4332.47 3313.78 4335.8C3319.38 4339 3322.18 4343.47 3322.18 4349.2C3322.18 4353.87 3320.78 4357.67 3317.98 4360.6C3315.18 4363.53 3311.51 4365 3306.98 4365C3304.31 4365 3302.98 4364.13 3302.98 4362.4C3302.98 4361.87 3303.44 4360.67 3304.38 4358.8C3305.44 4356.93 3305.98 4354.8 3305.98 4352.4C3305.98 4348.13 3304.44 4344.93 3301.38 4342.8C3298.31 4340.53 3294.84 4339.4 3290.98 4339.4C3286.04 4339.4 3282.11 4340.6 3279.18 4343C3276.38 4345.4 3274.98 4348.53 3274.98 4352.4C3274.98 4356.93 3276.84 4360.67 3280.58 4363.6C3284.31 4366.4 3289.58 4369.07 3296.38 4371.6C3302.24 4374.13 3307.11 4376.47 3310.98 4378.6C3314.84 4380.73 3318.11 4383.47 3320.78 4386.8C3323.44 4390 3324.78 4393.8 3324.78 4398.2C3324.78 4406.47 3321.44 4413.13 3314.78 4418.2C3308.24 4423.13 3299.58 4425.6 3288.78 4425.6ZM3424.28 4425.6C3415.88 4425.6 3408.55 4423.67 3402.28 4419.8C3396.02 4415.93 3391.15 4410.53 3387.68 4403.6C3384.22 4396.53 3382.48 4388.4 3382.48 4379.2C3382.48 4369.6 3384.42 4361.13 3388.28 4353.8C3392.15 4346.47 3397.62 4340.8 3404.68 4336.8C3411.88 4332.8 3420.15 4330.8 3429.48 4330.8C3439.35 4330.8 3446.95 4333.4 3452.28 4338.6C3457.75 4343.8 3460.48 4350.07 3460.48 4357.4C3460.48 4362.47 3459.08 4367.33 3456.28 4372C3453.62 4376.67 3449.62 4380.47 3444.28 4383.4C3439.08 4386.33 3432.95 4387.8 3425.88 4387.8C3421.88 4387.8 3417.55 4387.13 3412.88 4385.8C3408.22 4384.33 3405.88 4382.2 3405.88 4379.4C3405.88 4378.33 3406.15 4377.4 3406.68 4376.6C3407.22 4375.8 3407.82 4375.4 3408.48 4375.4C3408.88 4375.4 3410.08 4375.8 3412.08 4376.6C3414.22 4377.27 3416.95 4377.6 3420.28 4377.6C3427.62 4377.6 3433.28 4375.6 3437.28 4371.6C3441.28 4367.6 3443.28 4362.8 3443.28 4357.2C3443.28 4352.4 3441.68 4348.27 3438.48 4344.8C3435.42 4341.33 3431.28 4339.6 3426.08 4339.6C3418.22 4339.6 3412.08 4343.07 3407.68 4350C3403.42 4356.8 3401.28 4366.53 3401.28 4379.2C3401.28 4390 3403.55 4398.47 3408.08 4404.6C3412.75 4410.6 3419.42 4413.6 3428.08 4413.6C3438.75 4413.6 3447.55 4410.13 3454.48 4403.2C3454.88 4402.8 3455.42 4402.6 3456.08 4402.6C3457.15 4402.6 3458.22 4403.13 3459.28 4404.2C3460.48 4405.27 3461.08 4406.4 3461.08 4407.6C3461.08 4408 3460.95 4408.4 3460.68 4408.8C3460.42 4409.07 3460.28 4409.27 3460.28 4409.4C3455.75 4414.73 3450.35 4418.8 3444.08 4421.6C3437.95 4424.27 3431.35 4425.6 3424.28 4425.6ZM3562.19 4425.6C3553.79 4425.6 3546.25 4423.53 3539.59 4419.4C3532.92 4415.27 3527.65 4409.6 3523.79 4402.4C3520.05 4395.2 3518.19 4387.13 3518.19 4378.2C3518.19 4368.6 3519.99 4360.27 3523.59 4353.2C3527.19 4346 3532.32 4340.47 3538.99 4336.6C3545.65 4332.73 3553.39 4330.8 3562.19 4330.8C3571.52 4330.8 3579.12 4333.07 3584.99 4337.6C3590.99 4342 3593.99 4347.73 3593.99 4354.8C3593.99 4360 3592.32 4364.27 3588.99 4367.6C3585.65 4370.8 3581.39 4372.4 3576.19 4372.4C3574.99 4372.4 3574.12 4372.27 3573.59 4372C3573.05 4371.73 3572.79 4371.27 3572.79 4370.6C3572.79 4370.2 3573.19 4369.33 3573.99 4368C3574.92 4366.67 3575.72 4365.07 3576.39 4363.2C3577.05 4361.2 3577.39 4358.67 3577.39 4355.6C3577.39 4350.8 3575.79 4347.07 3572.59 4344.4C3569.52 4341.6 3565.39 4340.2 3560.19 4340.2C3553.25 4340.2 3547.65 4343.6 3543.39 4350.4C3539.25 4357.07 3537.19 4365.93 3537.19 4377C3537.19 4388.2 3539.65 4397.07 3544.59 4403.6C3549.65 4410.13 3556.45 4413.4 3564.99 4413.4C3569.39 4413.4 3573.52 4412.67 3577.39 4411.2C3581.25 4409.73 3585.12 4407.4 3588.99 4404.2C3589.25 4403.93 3589.79 4403.8 3590.59 4403.8C3591.65 4403.8 3592.65 4404.4 3593.59 4405.6C3594.65 4406.67 3595.19 4407.8 3595.19 4409C3595.19 4409.93 3595.05 4410.4 3594.79 4410.4C3590.52 4415.33 3585.52 4419.13 3579.79 4421.8C3574.19 4424.33 3568.32 4425.6 3562.19 4425.6ZM3675.78 4425.6C3670.85 4425.6 3666.98 4424.07 3664.18 4421C3661.38 4417.8 3659.98 4413.47 3659.98 4408V4344.2H3644.18C3644.18 4341 3644.45 4338.93 3644.98 4338C3645.51 4336.93 3646.71 4336.13 3648.58 4335.6C3654.98 4334 3659.51 4331.33 3662.18 4327.6C3664.85 4323.87 3666.85 4318.93 3668.18 4312.8C3668.45 4310.93 3669.05 4309.8 3669.98 4309.4C3671.05 4308.87 3673.31 4308.6 3676.78 4308.6V4333H3700.18C3700.18 4335.53 3699.78 4337.8 3698.98 4339.8C3698.31 4341.8 3697.38 4343.27 3696.18 4344.2H3676.78V4402.8C3676.78 4406.53 3677.25 4409.2 3678.18 4410.8C3679.25 4412.27 3681.05 4413 3683.58 4413C3687.18 4413 3691.25 4411.07 3695.78 4407.2L3699.18 4412C3696.11 4416 3692.38 4419.27 3687.98 4421.8C3683.58 4424.33 3679.51 4425.6 3675.78 4425.6ZM3771.3 4315.6C3769.3 4315.6 3766.97 4314.2 3764.3 4311.4C3761.64 4308.6 3760.3 4306.07 3760.3 4303.8C3760.3 4301.53 3761.57 4299 3764.1 4296.2C3766.77 4293.4 3769.17 4292 3771.3 4292C3773.57 4292 3776.04 4293.4 3778.7 4296.2C3781.37 4299 3782.7 4301.53 3782.7 4303.8C3782.7 4306.07 3781.37 4308.6 3778.7 4311.4C3776.04 4314.2 3773.57 4315.6 3771.3 4315.6ZM3777.3 4425.6C3772.37 4425.6 3768.77 4424.13 3766.5 4421.2C3764.37 4418.13 3763.3 4413.2 3763.3 4406.4V4350.4C3763.3 4348.8 3763.04 4347.67 3762.5 4347C3761.97 4346.33 3761.04 4346 3759.7 4346H3751.5L3750.1 4341.6C3753.57 4338.4 3757.5 4335.8 3761.9 4333.8C3766.44 4331.8 3770.37 4330.8 3773.7 4330.8C3775.44 4330.8 3776.84 4331.33 3777.9 4332.4C3779.1 4333.33 3779.7 4334.6 3779.7 4336.2V4407C3779.7 4411.13 3781.5 4413.2 3785.1 4413.2C3787.9 4413.2 3790.97 4411.93 3794.3 4409.4L3797.7 4414C3794.37 4417.47 3790.84 4420.27 3787.1 4422.4C3783.5 4424.53 3780.24 4425.6 3777.3 4425.6ZM3888.55 4425.6C3882.28 4425.6 3877.22 4424.4 3873.35 4422C3869.62 4419.6 3866.62 4415.8 3864.35 4410.6C3862.22 4405.27 3860.48 4397.87 3859.15 4388.4L3853.15 4350.4C3852.88 4348.67 3852.55 4347.53 3852.15 4347C3851.75 4346.33 3850.95 4346 3849.75 4346H3841.95L3840.15 4341.6C3843.35 4338.53 3847.08 4336 3851.35 4334C3855.75 4331.87 3859.62 4330.8 3862.95 4330.8C3866.28 4330.8 3868.28 4332.6 3868.95 4336.2L3876.95 4393.2C3878.02 4400.4 3879.62 4405.67 3881.75 4409C3883.88 4412.2 3886.95 4413.8 3890.95 4413.8C3898.42 4413.8 3904.08 4409.53 3907.95 4401C3911.82 4392.47 3913.75 4382.07 3913.75 4369.8C3913.75 4364.07 3913.02 4358.47 3911.55 4353C3910.22 4347.4 3908.22 4342.47 3905.55 4338.2L3903.95 4335.4L3905.95 4333.2L3927.75 4330.8C3928.28 4339.33 3928.55 4345.73 3928.55 4350C3928.55 4366 3926.68 4379.73 3922.95 4391.2C3919.35 4402.53 3914.48 4411.13 3908.35 4417C3902.35 4422.73 3895.75 4425.6 3888.55 4425.6ZM4020.95 4425.6C4015.08 4425.6 4009.62 4423.93 4004.55 4420.6C3999.62 4417.13 3995.62 4412.13 3992.55 4405.6C3989.62 4398.93 3988.15 4390.87 3988.15 4381.4C3988.15 4365.8 3992.35 4353.47 4000.75 4344.4C4009.28 4335.33 4020.75 4330.8 4035.15 4330.8C4039.95 4330.8 4046.48 4331.53 4054.75 4333C4060.88 4334.07 4066.42 4334.8 4071.35 4335.2L4073.75 4337.4L4071.15 4340.8C4070.22 4342.4 4069.55 4343.67 4069.15 4344.6C4068.88 4345.4 4068.75 4346.53 4068.75 4348V4407C4068.75 4410.73 4070.68 4412.6 4074.55 4412.6C4077.48 4412.6 4080.48 4411.53 4083.55 4409.4L4086.95 4414C4083.75 4417.6 4080.35 4420.47 4076.75 4422.6C4073.15 4424.6 4069.88 4425.6 4066.95 4425.6C4061.88 4425.6 4058.22 4424.13 4055.95 4421.2C4053.68 4418.13 4052.55 4413.2 4052.55 4406.4C4047.75 4413.47 4042.75 4418.47 4037.55 4421.4C4032.48 4424.2 4026.95 4425.6 4020.95 4425.6ZM4027.95 4411.4C4038.08 4411.4 4046.28 4405.93 4052.55 4395V4346C4047.35 4342.53 4041.48 4340.8 4034.95 4340.8C4026.28 4340.8 4019.48 4344.07 4014.55 4350.6C4009.75 4357 4007.35 4366.13 4007.35 4378C4007.35 4389.47 4009.28 4397.93 4013.15 4403.4C4017.15 4408.73 4022.08 4411.4 4027.95 4411.4ZM4170.73 4425.6C4161.66 4425.6 4154.13 4423.53 4148.13 4419.4C4142.13 4415.13 4139.13 4409.6 4139.13 4402.8C4139.13 4398.8 4140.53 4395.47 4143.33 4392.8C4146.26 4390 4149.93 4388.6 4154.33 4388.6C4155.26 4388.6 4156.13 4388.8 4156.93 4389.2C4157.73 4389.6 4158.13 4390.13 4158.13 4390.8C4158.13 4391.2 4157.73 4392.4 4156.93 4394.4C4156.13 4396.27 4155.73 4398.53 4155.73 4401.2C4155.73 4406.13 4157.46 4409.93 4160.93 4412.6C4164.53 4415.27 4168.53 4416.6 4172.93 4416.6C4177.99 4416.6 4182.13 4415.27 4185.33 4412.6C4188.53 4409.93 4190.13 4406.47 4190.13 4402.2C4190.13 4398.33 4188.39 4395.13 4184.93 4392.6C4181.59 4390.07 4176.73 4387.47 4170.33 4384.8C4164.46 4382.27 4159.53 4379.87 4155.53 4377.6C4151.66 4375.33 4148.33 4372.33 4145.53 4368.6C4142.73 4364.87 4141.33 4360.33 4141.33 4355C4141.33 4347.93 4144.46 4342.13 4150.73 4337.6C4156.99 4333.07 4164.86 4330.8 4174.33 4330.8C4182.99 4330.8 4190.13 4332.47 4195.73 4335.8C4201.33 4339 4204.13 4343.47 4204.13 4349.2C4204.13 4353.87 4202.73 4357.67 4199.93 4360.6C4197.13 4363.53 4193.46 4365 4188.93 4365C4186.26 4365 4184.93 4364.13 4184.93 4362.4C4184.93 4361.87 4185.39 4360.67 4186.33 4358.8C4187.39 4356.93 4187.93 4354.8 4187.93 4352.4C4187.93 4348.13 4186.39 4344.93 4183.33 4342.8C4180.26 4340.53 4176.79 4339.4 4172.93 4339.4C4167.99 4339.4 4164.06 4340.6 4161.13 4343C4158.33 4345.4 4156.93 4348.53 4156.93 4352.4C4156.93 4356.93 4158.79 4360.67 4162.53 4363.6C4166.26 4366.4 4171.53 4369.07 4178.33 4371.6C4184.19 4374.13 4189.06 4376.47 4192.93 4378.6C4196.79 4380.73 4200.06 4383.47 4202.73 4386.8C4205.39 4390 4206.73 4393.8 4206.73 4398.2C4206.73 4406.47 4203.39 4413.13 4196.73 4418.2C4190.19 4423.13 4181.53 4425.6 4170.73 4425.6Z" fill="#FDFBFB"/>
<path d="M3412.62 3725.51C3412.62 3703.76 3416.72 3683.52 3424.92 3664.77C3433.12 3645.89 3444.97 3629.54 3460.47 3615.74C3476.09 3601.81 3495.1 3590.87 3517.5 3582.93C3540.03 3574.99 3565.48 3571.02 3593.87 3571.02C3618.74 3571.02 3641.52 3573.55 3662.23 3578.63C3683.06 3583.58 3702.4 3591.2 3720.23 3601.48L3691.72 3648.36C3686.38 3644.84 3680.2 3641.72 3673.16 3638.98C3666.26 3636.25 3658.84 3633.97 3650.9 3632.15C3643.09 3630.2 3634.95 3628.7 3626.48 3627.66C3618.15 3626.61 3609.88 3626.09 3601.68 3626.09C3581.89 3626.09 3564.24 3628.57 3548.75 3633.52C3533.26 3638.33 3520.17 3645.17 3509.49 3654.02C3498.95 3662.75 3490.87 3673.23 3485.27 3685.47C3479.8 3697.58 3477.07 3710.92 3477.07 3725.51C3477.07 3740.61 3479.93 3754.48 3485.66 3767.11C3491.39 3779.74 3499.66 3790.68 3510.47 3799.92C3521.41 3809.04 3534.69 3816.2 3550.31 3821.41C3566.07 3826.48 3583.84 3829.02 3603.63 3829.02C3612.62 3829.02 3621.54 3828.37 3630.39 3827.07C3639.24 3825.77 3647.77 3824.01 3655.98 3821.8C3664.31 3819.45 3672.32 3816.72 3680 3813.59C3687.68 3810.34 3694.84 3806.82 3701.48 3803.05L3730 3849.92C3713.33 3860.6 3694.06 3869 3672.19 3875.12C3650.31 3881.11 3627.07 3884.1 3602.46 3884.1C3571.08 3884.1 3543.54 3880.07 3519.84 3871.99C3496.15 3863.79 3476.35 3852.59 3460.47 3838.4C3444.58 3824.08 3432.6 3807.28 3424.53 3788.01C3416.59 3768.61 3412.62 3747.77 3412.62 3725.51ZM3817.27 3764.77C3817.27 3748.23 3820.59 3732.73 3827.23 3718.28C3834 3703.83 3843.57 3691.2 3855.94 3680.39C3868.44 3669.58 3883.48 3661.05 3901.05 3654.8C3918.76 3648.55 3938.62 3645.43 3960.62 3645.43C3982.63 3645.43 4002.42 3648.55 4020 3654.8C4037.71 3661.05 4052.75 3669.58 4065.12 3680.39C4077.62 3691.2 4087.19 3703.83 4093.83 3718.28C4100.6 3732.73 4103.98 3748.23 4103.98 3764.77C4103.98 3781.3 4100.6 3796.8 4093.83 3811.25C4087.19 3825.7 4077.62 3838.33 4065.12 3849.14C4052.75 3859.95 4037.71 3868.48 4020 3874.73C4002.42 3880.98 3982.63 3884.1 3960.62 3884.1C3938.62 3884.1 3918.76 3880.98 3901.05 3874.73C3883.48 3868.48 3868.44 3859.95 3855.94 3849.14C3843.57 3838.33 3834 3825.7 3827.23 3811.25C3820.59 3796.8 3817.27 3781.3 3817.27 3764.77ZM3878.01 3764.77C3878.01 3774.01 3879.83 3782.8 3883.48 3791.13C3887.25 3799.34 3892.66 3806.63 3899.69 3813.01C3906.85 3819.26 3915.51 3824.27 3925.66 3828.05C3935.95 3831.69 3947.6 3833.52 3960.62 3833.52C3973.65 3833.52 3985.23 3831.69 3995.39 3828.05C4005.68 3824.27 4014.34 3819.26 4021.37 3813.01C4028.53 3806.63 4033.93 3799.34 4037.58 3791.13C4041.35 3782.8 4043.24 3774.01 4043.24 3764.77C4043.24 3755.52 4041.35 3746.73 4037.58 3738.4C4033.93 3730.07 4028.53 3722.77 4021.37 3716.52C4014.34 3710.14 4005.68 3705.13 3995.39 3701.48C3985.23 3697.71 3973.65 3695.82 3960.62 3695.82C3947.6 3695.82 3935.95 3697.71 3925.66 3701.48C3915.51 3705.13 3906.85 3710.14 3899.69 3716.52C3892.66 3722.77 3887.25 3730.07 3883.48 3738.4C3879.83 3746.73 3878.01 3755.52 3878.01 3764.77ZM4184.61 3765.74C4184.61 3747.38 4188.06 3730.85 4194.96 3716.13C4201.86 3701.29 4211.37 3688.66 4223.48 3678.24C4235.72 3667.7 4250.17 3659.62 4266.84 3654.02C4283.63 3648.29 4301.8 3645.43 4321.33 3645.43C4329.66 3645.43 4337.86 3645.95 4345.94 3646.99C4354.14 3648.03 4361.95 3649.47 4369.38 3651.29C4376.93 3653.11 4383.96 3655.33 4390.47 3657.93C4397.11 3660.4 4402.97 3663.14 4408.05 3666.13V3555.98H4465.86V3880H4408.05V3858.32C4402.97 3861.84 4396.98 3865.16 4390.08 3868.28C4383.18 3871.41 4375.76 3874.14 4367.81 3876.48C4359.87 3878.83 4351.6 3880.65 4343.01 3881.95C4334.54 3883.39 4326.15 3884.1 4317.81 3884.1C4298.28 3884.1 4280.31 3881.24 4263.91 3875.51C4247.63 3869.78 4233.63 3861.71 4221.91 3851.29C4210.2 3840.87 4201.02 3828.44 4194.38 3813.98C4187.86 3799.4 4184.61 3783.32 4184.61 3765.74ZM4245.35 3765.74C4245.35 3774.99 4247.17 3783.71 4250.82 3791.91C4254.6 3800.12 4259.93 3807.34 4266.84 3813.59C4273.87 3819.71 4282.27 3824.6 4292.03 3828.24C4301.93 3831.76 4312.99 3833.52 4325.23 3833.52C4333.05 3833.52 4340.86 3832.8 4348.67 3831.37C4356.48 3829.8 4363.97 3827.66 4371.13 3824.92C4378.42 3822.19 4385.2 3818.87 4391.45 3814.96C4397.83 3811.05 4403.36 3806.69 4408.05 3801.88V3721.99C4402.19 3717.3 4396 3713.33 4389.49 3710.08C4382.98 3706.82 4376.34 3704.15 4369.57 3702.07C4362.8 3699.99 4355.96 3698.49 4349.06 3697.58C4342.16 3696.54 4335.46 3696.02 4328.95 3696.02C4315.66 3696.02 4303.82 3697.84 4293.4 3701.48C4283.11 3705 4274.39 3709.88 4267.23 3716.13C4260.2 3722.38 4254.79 3729.74 4251.02 3738.2C4247.24 3746.67 4245.35 3755.85 4245.35 3765.74ZM4565.82 3763.98C4565.82 3748.36 4569.01 3733.45 4575.39 3719.26C4581.77 3704.93 4590.95 3692.3 4602.93 3681.37C4614.91 3670.43 4629.56 3661.71 4646.88 3655.2C4664.32 3648.68 4684.11 3645.43 4706.25 3645.43C4728.26 3645.43 4748.05 3648.75 4765.62 3655.39C4783.33 3661.9 4798.31 3670.89 4810.55 3682.34C4822.92 3693.8 4832.36 3707.28 4838.87 3722.77C4845.51 3738.27 4848.83 3754.87 4848.83 3772.58C4848.83 3774.79 4848.76 3777.2 4848.63 3779.8C4848.63 3782.28 4848.5 3784.56 4848.24 3786.64H4630.27C4632.75 3793.54 4636.72 3799.86 4642.19 3805.59C4647.79 3811.32 4654.75 3816.26 4663.09 3820.43C4671.42 3824.6 4681.05 3827.85 4691.99 3830.2C4702.93 3832.41 4715.04 3833.52 4728.32 3833.52C4741.6 3833.52 4754.82 3832.15 4767.97 3829.41C4781.12 3826.55 4793.68 3822.97 4805.66 3818.67L4825.2 3862.81C4817.64 3866.33 4809.96 3869.45 4802.15 3872.19C4794.47 3874.79 4786.39 3877.01 4777.93 3878.83C4769.6 3880.52 4760.81 3881.82 4751.56 3882.73C4742.45 3883.65 4732.81 3884.1 4722.66 3884.1C4696.74 3884.1 4674.02 3880.98 4654.49 3874.73C4634.96 3868.48 4618.62 3859.95 4605.47 3849.14C4592.32 3838.33 4582.42 3825.64 4575.78 3811.05C4569.14 3796.47 4565.82 3780.78 4565.82 3763.98ZM4787.5 3741.52C4785.42 3735.14 4782.16 3729.22 4777.73 3723.75C4773.44 3718.15 4768.03 3713.33 4761.52 3709.3C4755.01 3705.13 4747.46 3701.88 4738.87 3699.53C4730.27 3697.19 4720.83 3696.02 4710.55 3696.02C4699.61 3696.02 4689.65 3697.25 4680.66 3699.73C4671.68 3702.2 4663.8 3705.52 4657.03 3709.69C4650.26 3713.85 4644.6 3718.67 4640.04 3724.14C4635.61 3729.61 4632.36 3735.4 4630.27 3741.52H4787.5ZM4960.31 3809.3C4975.94 3818.67 4993.12 3825.57 5011.88 3830C5030.62 3834.43 5049.83 3836.64 5069.49 3836.64C5082.77 3836.64 5093.84 3835.73 5102.7 3833.91C5111.55 3832.08 5118.65 3829.74 5123.98 3826.88C5129.32 3824.01 5133.1 3820.76 5135.31 3817.11C5137.53 3813.46 5138.63 3809.75 5138.63 3805.98C5138.63 3800.51 5136.22 3795.82 5131.41 3791.91C5126.72 3788.01 5118.91 3786.05 5107.97 3786.05C5102.89 3786.05 5097.42 3786.38 5091.56 3787.03C5085.7 3787.68 5079.52 3788.4 5073.01 3789.18C5066.63 3789.83 5059.92 3790.48 5052.89 3791.13C5045.99 3791.78 5038.96 3792.11 5031.8 3792.11C5016.17 3792.11 5002.83 3790.42 4991.76 3787.03C4980.82 3783.65 4971.9 3779.02 4965 3773.16C4958.1 3767.3 4953.09 3760.4 4949.96 3752.46C4946.84 3744.39 4945.27 3735.73 4945.27 3726.48C4945.27 3714.77 4948.01 3703.96 4953.48 3694.06C4958.95 3684.17 4966.76 3675.64 4976.91 3668.48C4987.07 3661.18 4999.31 3655.52 5013.63 3651.48C5028.09 3647.45 5044.17 3645.43 5061.88 3645.43C5071.12 3645.43 5080.76 3646.02 5090.78 3647.19C5100.94 3648.23 5110.9 3649.66 5120.66 3651.48C5130.43 3653.31 5139.8 3655.46 5148.79 3657.93C5157.77 3660.27 5165.72 3662.81 5172.62 3665.55L5154.45 3710.47C5139.74 3705 5125.03 3700.7 5110.31 3697.58C5095.73 3694.32 5080.69 3692.7 5065.2 3692.7C5054.39 3692.7 5045.21 3693.54 5037.66 3695.23C5030.23 3696.8 5024.18 3698.95 5019.49 3701.68C5014.8 3704.28 5011.35 3707.34 5009.14 3710.86C5007.06 3714.24 5006.02 3717.83 5006.02 3721.6C5006.02 3724.34 5006.54 3726.81 5007.58 3729.02C5008.75 3731.24 5010.57 3733.19 5013.05 3734.88C5015.65 3736.45 5018.97 3737.68 5023.01 3738.59C5027.17 3739.38 5032.25 3739.77 5038.24 3739.77C5043.71 3739.77 5049.51 3739.44 5055.62 3738.79C5061.74 3738.14 5068.12 3737.49 5074.77 3736.84C5081.41 3736.05 5088.24 3735.34 5095.27 3734.69C5102.43 3734.04 5109.73 3733.71 5117.15 3733.71C5130.95 3733.71 5142.99 3735.34 5153.28 3738.59C5163.7 3741.85 5172.29 3746.41 5179.06 3752.27C5185.83 3758.12 5190.91 3765.03 5194.3 3772.97C5197.68 3780.91 5199.38 3789.57 5199.38 3798.95C5199.38 3811.05 5196.58 3822.32 5190.98 3832.73C5185.38 3843.15 5177.04 3852.2 5165.98 3859.88C5154.91 3867.43 5141.11 3873.36 5124.57 3877.66C5108.16 3881.95 5089.15 3884.1 5067.54 3884.1C5054.26 3884.1 5041.43 3883.26 5029.06 3881.56C5016.69 3880 5004.91 3877.85 4993.71 3875.12C4982.51 3872.25 4971.97 3868.93 4962.07 3865.16C4952.3 3861.38 4943.39 3857.34 4935.31 3853.05L4960.31 3809.3Z" fill="#FDFBFB"/>
<path d="M3085 4117C3077.27 4117 3071 4123.27 3071 4131C3071 4138.73 3077.27 4145 3085 4145V4117ZM4163.83 4131L4083 4050.17L4002.17 4131L4083 4211.83L4163.83 4131ZM3085 4145H4083V4117H3085V4145Z" fill="black"/>
<path d="M1089.17 4378L1170 4458.83L1250.83 4378L1170 4297.17L1089.17 4378ZM2344 4392C2351.73 4392 2358 4385.73 2358 4378C2358 4370.27 2351.73 4364 2344 4364V4392ZM1170 4392H2344V4364H1170V4392Z" fill="black"/>
<path d="M2692.16 405L3405 1784.38L2692.16 3187L1903 1784.38L2692.16 405Z" fill="#97C6AC"/>
<path d="M1903 1784.38L2692.16 1577.59M1903 1784.38L2692.16 405M1903 1784.38L2692.16 2083.34M1903 1784.38L2692.16 3187M2692.16 1577.59L3405 1784.38M2692.16 1577.59V405M3405 1784.38L2692.16 405M3405 1784.38L2692.16 2083.34M3405 1784.38L2692.16 3187M2692.16 2083.34V3187" stroke="#FDFBFB" stroke-width="50"/>
</svg>
